# xmcd
#
# Track frame offsets: 
#        150
#        19843
#        38002
#        57729
#        76002
#        92544
#        110496
#        129486
#        145813
#        162446
#        181045
#        195920
#        211796
#        228651
#
# Disc length: 3328 seconds
#
# Revision: 3
# Processed by: cddbd v1.5.2PL0 Copyright (c) Steve Scherf et al.
# Submitted via: ExactAudioCopy v1.3
#
DISCID=af0cfe0e
DTITLE=Ruben Studdard - Soulful
DYEAR=2005
DGENRE=Soul
TTITLE0=Sorry 2004
TTITLE1=No Ruben
TTITLE2=How Can You Mend A Broken Heart
TTITLE3=Take The Shot
TTITLE4=What Is Sexy (Featuring Fat Joe)
TTITLE5=What If
TTITLE6=Superstar
TTITLE7=Can I Get Your Attention (Featuring Pretty Tony)
TTITLE8=For All We Know
TTITLE9=Play Our Song
TTITLE10=Don't Quit On Me
TTITLE11=After The Candles Burn
TTITLE12=Flying Without Wings
TTITLE13=We Have Not Forgotten (Featuring Fred Hammond)
EXTD=
EXTT0=
EXTT1=
EXTT2=
EXTT3=
EXTT4=
EXTT5=
EXTT6=
EXTT7=
EXTT8=
EXTT9=
EXTT10=
EXTT11=
EXTT12=
EXTT13=
PLAYORDER=
